<svg xmlns="http://www.w3.org/2000/svg" height="48" viewBox="0 -960 960 960" width="48"><path d="M253-99q-38.212 0-65.106-26.6Q161-152.2 161-190v-552h-11q-18.75 0-31.375-12.86Q106-767.719 106-787.36 106-807 118.613-820q12.612-13 31.387-13h181q0-20 12.425-33.5T377-880h204q21.15 0 34.253 13.55 13.102 13.55 13.102 33.45h180.6q20.245 0 33.145 13.375 12.9 13.376 12.9 32.116 0 20.141-12.9 32.825Q829.2-742 809-742h-11v552q0 37.8-26.894 64.4Q744.213-99 706-99H253Zm104-169h74v-398h-74v398Zm173 0h75v-398h-75v398Z"/></svg>