<svg xmlns="http://www.w3.org/2000/svg" height="48" viewBox="0 -960 960 960" width="48"><path d="M480.256-342q-8.399 0-17.849-3.773Q452.957-349.545 447-356L288-516q-14-12.364-13.708-31.208.291-18.844 14.317-32.363Q301.4-593.154 321-592.577 340.6-592 354-579l81 81v-278q0-19.65 12.86-32.825Q460.719-822 480.36-822 500-822 513-808.825T526-776v278l82-81q12.667-13 30.748-13.657 18.082-.657 32.411 12.577Q684-567 684-547.682q0 19.318-13 33.682L513-356q-5.81 6.455-15.221 10.227Q488.368-342 480.256-342ZM230-139q-37.175 0-64.087-26.913Q139-192.825 139-230v-98q0-18.375 12.86-31.688Q164.719-373 184.36-373 204-373 217-359.688q13 13.313 13 31.688v98h500v-98q0-18.375 13.56-31.688Q757.119-373 775.772-373q20.053 0 33.14 13.312Q822-346.375 822-328v98q0 37.175-27.206 64.087Q767.588-139 730-139H230Z"/></svg>