<?xml version="1.0" encoding="utf-8"?>
<!-- Generator: Adobe Illustrator 27.0.0, SVG Export Plug-In . SVG Version: 6.00 Build 0)  -->
<svg version="1.1" id="Layer_1" xmlns="http://www.w3.org/2000/svg" xmlns:xlink="http://www.w3.org/1999/xlink" x="0px" y="0px"
	 viewBox="0 0 522.6 522.6" style="enable-background:new 0 0 522.6 522.6;" xml:space="preserve">
<style type="text/css">
	.st0{fill:#FFFFFF;fill-opacity:0;}
	.st1{fill:#FFFFFF;}
</style>
<rect class="st0" width="522.6" height="522.6"/>
<g id="sunny">
	<path class="st1" d="M183.7,355.8c-81.1-4.9-89.6-41.4-114.5-128.7c-1.3-4.7-3.6-17.2-3.9-21.7c-6.2,88.7,17.9,140.5,63.9,163.8
		c38.6,19.6,94.2,20.8,136-14.5C239.4,358.9,221.8,358.1,183.7,355.8z"/>
	<path class="st1" d="M142.4,295.8c-15.7-20.8-18.9-43.4-17.4-76.1c2-42.3,7-74,57.7-106.3c-62.8,21.6-113.1,87.9-81.4,174
		c-15.5-19.7-28.4-45.1-35.9-83.5c0,0.5-0.1,1-0.1,1.4c0.2,4.7,0.7,9.3,1.5,13.9C84.2,321.4,98.4,351.7,182.3,360
		c33,3.3,62.7,3.2,82.9-5.4c0.4-0.4,0.9-0.7,1.3-1.1l6.7-38C219.3,343.5,171.6,334.6,142.4,295.8z"/>
	<path class="st1" d="M191.2,110.8c-2.8,0.8-5.7,1.7-8.4,2.6c-54.8,30.7-61.4,64.3-63.4,106.6c-1.5,32.7,4.8,59.5,20.5,80.3
		c29.2,38.7,86,52.8,133.4,15.3l4.2-23.8C204.4,321.9,69.4,186,191.2,110.8z"/>
	<path class="st1" d="M298.9,272.6c0,0-37-69.2-44.9-88.1l-11.7,99.7l-72.6,15.7l71.5,37.5l-2.2,76.1l41.7-56.2l98.6,19.6l-59.5-58
		l68.7-44.7L298.9,272.6z"/>
	<polygon class="st1" points="335.6,221.8 358.4,253.8 360.9,217.2 408.9,204.4 363,187.7 357.1,144.6 338.7,180.9 306.3,154.9 
		322.5,202.8 298.5,226.5 	"/>
	<polygon class="st1" points="458.3,241.4 431.7,239.7 422.1,214.1 413.4,238.6 380.1,240.2 408.5,257.3 399.6,286.5 420.5,271.9 
		444.2,283.2 437.8,254.3 	"/>
</g>
</svg>
